<svg xmlns="http://www.w3.org/2000/svg" xmlns:xlink="http://www.w3.org/1999/xlink" viewBox="0 0 494.86 461.45"><defs><radialGradient id="radial-gradient" cx="250" cy="250.01" r="239.22" gradientUnits="userSpaceOnUse"><stop offset="0" stop-color="#ff680b"/><stop offset="0.7" stop-color="#db001d"/></radialGradient><radialGradient id="radial-gradient-2" cx="14754.64" cy="512.89" r="2.59" gradientTransform="matrix(-1, -0.01, -0.01, 1, 14946.05, -154.55)" xlink:href="#radial-gradient"/><radialGradient id="radial-gradient-3" cx="-1178.3" cy="590.87" r="0" gradientTransform="matrix(-1, -0.01, -0.01, 1, -897.77, -239.44)" xlink:href="#radial-gradient"/><radialGradient id="radial-gradient-4" cx="-1293.32" cy="437.23" r="118.83" gradientTransform="matrix(-1, -0.01, -0.01, 1, -897.77, -239.44)" gradientUnits="userSpaceOnUse"><stop offset="0.08" stop-color="#db001d"/><stop offset="1" stop-color="#ff680b"/></radialGradient><radialGradient id="radial-gradient-5" cx="-1300.89" cy="406.95" r="121.34" gradientTransform="matrix(-0.74, 0.67, 0.53, 0.59, -778.86, 810.45)" xlink:href="#radial-gradient-4"/><radialGradient id="radial-gradient-6" cx="-1296.69" cy="331.39" r="149.49" gradientTransform="matrix(-0.33, 0.94, 0.54, 0.19, -207.28, 1261.83)" xlink:href="#radial-gradient-4"/><radialGradient id="radial-gradient-7" cx="-1219.31" cy="361.25" r="95.95" gradientTransform="matrix(-1, -0.01, -0.01, 1, -897.77, -239.44)" xlink:href="#radial-gradient"/><radialGradient id="radial-gradient-8" cx="-14998.28" cy="590.87" r="0" gradientTransform="translate(15222.11 -153.07) rotate(0.31)" xlink:href="#radial-gradient"/><radialGradient id="radial-gradient-9" cx="-15113.3" cy="437.23" r="118.83" gradientTransform="translate(15222.11 -153.07) rotate(0.31)" xlink:href="#radial-gradient-4"/><radialGradient id="radial-gradient-10" cx="-15120.87" cy="406.95" r="121.34" gradientTransform="matrix(0.73, 0.68, -0.54, 0.58, 11401.54, 10222.91)" xlink:href="#radial-gradient-4"/><radialGradient id="radial-gradient-11" cx="-15116.67" cy="331.39" r="149.49" gradientTransform="matrix(0.32, 0.95, -0.55, 0.18, 5077.57, 14373.61)" xlink:href="#radial-gradient-4"/><radialGradient id="radial-gradient-12" cx="-15039.28" cy="361.25" r="95.95" gradientTransform="translate(15222.11 -153.07) rotate(0.31)" xlink:href="#radial-gradient"/><radialGradient id="radial-gradient-13" cx="-157.24" cy="-4493.89" r="35.26" gradientTransform="matrix(0.8, -0.59, 0.59, 0.8, 3115.67, 3787.82)" gradientUnits="userSpaceOnUse"><stop offset="0.08" stop-color="#db001d"/><stop offset="1" stop-color="#f24211"/></radialGradient><radialGradient id="radial-gradient-14" cx="10988.19" cy="3495.96" r="35.26" gradientTransform="matrix(-0.82, -0.57, -0.57, 0.82, 11187.23, 3701.67)" xlink:href="#radial-gradient-13"/><radialGradient id="radial-gradient-15" cx="14133.02" cy="393.82" r="0.08" gradientTransform="translate(-13889.91 -154.55) rotate(-0.31)" xlink:href="#radial-gradient"/><radialGradient id="radial-gradient-16" cx="14133.69" cy="393.98" r="0.03" gradientTransform="translate(-13889.91 -154.55) rotate(-0.31)" xlink:href="#radial-gradient"/><radialGradient id="radial-gradient-17" cx="14131.99" cy="393.57" r="0.02" gradientTransform="translate(-13889.91 -154.55) rotate(-0.31)" xlink:href="#radial-gradient"/><radialGradient id="radial-gradient-18" cx="14132.36" cy="393.66" r="0.04" gradientTransform="translate(-13889.91 -154.55) rotate(-0.31)" xlink:href="#radial-gradient"/><radialGradient id="radial-gradient-19" cx="14132.08" cy="393.6" r="0.03" gradientTransform="translate(-13889.91 -154.55) rotate(-0.31)" xlink:href="#radial-gradient"/><radialGradient id="radial-gradient-20" cx="14135.26" cy="394.36" r="0.02" gradientTransform="translate(-13889.91 -154.55) rotate(-0.31)" xlink:href="#radial-gradient"/><radialGradient id="radial-gradient-21" cx="14135.33" cy="394.38" r="0.03" gradientTransform="translate(-13889.91 -154.55) rotate(-0.31)" xlink:href="#radial-gradient"/><radialGradient id="radial-gradient-22" cx="14134.19" cy="394.1" r="0.14" gradientTransform="translate(-13889.91 -154.55) rotate(-0.31)" xlink:href="#radial-gradient"/><radialGradient id="radial-gradient-23" cx="14135.44" cy="394.41" r="0.05" gradientTransform="translate(-13889.91 -154.55) rotate(-0.31)" xlink:href="#radial-gradient"/><radialGradient id="radial-gradient-24" cx="14134.8" cy="394.25" r="0.31" gradientTransform="translate(-13889.91 -154.55) rotate(-0.31)" xlink:href="#radial-gradient"/><radialGradient id="radial-gradient-25" cx="14135.63" cy="394.45" r="0" gradientTransform="translate(-13889.91 -154.55) rotate(-0.31)" xlink:href="#radial-gradient"/><radialGradient id="radial-gradient-26" cx="14135.55" cy="394.43" r="0.02" gradientTransform="translate(-13889.91 -154.55) rotate(-0.31)" xlink:href="#radial-gradient"/><radialGradient id="radial-gradient-27" cx="14135.61" cy="394.45" r="0.01" gradientTransform="translate(-13889.91 -154.55) rotate(-0.31)" xlink:href="#radial-gradient"/><radialGradient id="radial-gradient-28" cx="14135.59" cy="394.44" r="0" gradientTransform="translate(-13889.91 -154.55) rotate(-0.31)" xlink:href="#radial-gradient"/></defs><g id="OBJECTS"><path d="M497.37,189.59c-.12-2.49-1.91-2.38-2.62-1.14-21.3,37.71-56.43,48.28-67.35,49.92-2.19.32-1.07-1.18.15-2,8.55-5.72,20.81-19.09,21-19.27l.18-.19h0C497.16,163.43,464.57,104,450,87.18c-.94-1.09-2.51-1.46-2.4.79.69,13.39,1.86,60.88-22.41,68.09-.74.22-1.89-.92-1.69-1.64C447.81,62.83,358.14,27,314.06,20c-1.3-.21-1.5,1.09-.38,1.53,48.44,19.21,97.28,101.27,52,144.18-3.57,3.26-1.83,8.37-1.79,8.53,5,21,17.78,77.41-17.14,107.48C339.41,288.19,330,293.78,318,298l-1.76.61c-2.29.76-4.75.87-.37-1.87,15-9.42,48.11-34.47,36.44-68.52-.32-1-1.51-.77-1.74.24-8,34.47-29.94,42-50.47,45.84h-.15l-4.79.06c5.82-11.05,7.29-43.31-19.16-88.38a67.67,67.67,0,0,1-6.38-14.73c1.79-4.6,23,3.88,20.82,2.86-8.85-4-14.42-8-23.7-9.24-.41-.06.14-.39.23-.81,1.3-5.88,32.74,5.42,34.26,5,.09-.62-38.06-14.86-47.91-12.59-.42.09-.46-.71-.05-.85,15-5.21,29.73,1.45,32,.28-32.08-15.74-51.93-4.68-61,.17-7.31,3.91-13.9,9.27-21,14.17a.43.43,0,0,1-.66-.28c-.23-1.15-.46-2.28-.69-3.41a.44.44,0,0,0-.33-.35,1,1,0,0,0-.43-.17.43.43,0,0,0-.71.31c-.67,10.74-8.92,15.63-14.63,22.56-6.78,8.23-7.12,27.15-1.79,33.05,2.82-9.6,6.76-16.36,12.75-17.48a.44.44,0,0,1,.4.72L192,211.62a.44.44,0,0,0,.33.73,3.92,3.92,0,0,0,2.64-.94c8.85-7.15,18.74,1.74,30.62,9.7,18,12.09,16.45,44.49-11.88,53.5q-2.4.76-4.91,1.3c-23.41-1.5-54.59-15.73-59.71-48.51a.89.89,0,0,0-1.74-.26c-12,33.93,20.77,59.33,35.71,68.91,4.34,2.78,1.88,2.65-.39,1.86l-1.75-.62c-12-4.37-21.35-10.06-28.67-16.62-34.59-30.45-21.23-86.76-16-107.66,0-.16,1.84-5.25-1.7-8.55C89.79,121.07,139.5,39.54,188.14,20.85c1.13-.43.94-1.73-.36-1.54C143.63,25.89,53.58,60.72,76.92,152.56c.18.73-1,1.85-1.71,1.62C51,146.72,52.7,99.24,53.53,85.86c.14-2.25-1.44-1.9-2.39-.82-14.76,16.65-48,75.74-.09,129.75h0l.17.19c.16.18,12.28,13.68,20.77,19.5,1.21.83,2.31,2.34.13,2-10.91-1.75-45.92-12.69-66.82-50.63-.69-1.25-2.48-1.38-2.62,1.11-.81,14,2.47,52.58,46.33,84l0,0c.25.18,22.57,20.43,66,30.77,1.61.39,2.23,2.1.65,2.44-13.36,2.89-38.1-1.42-71.27-10.59-1.63-.45-3.25,1.74-2.37,3.26,42.52,73.12,133.53,86.58,152.32,88.58,2.05.22,2.12-.65.37-1.78-10.22-6.58-42.52-26.82-44.49-41.87-.08-.63.48.27,0,0-.19-.1-2.1,6.1,26.1,22.79l31.35,18.55,4.31,1.77c-9.92-9.47-22.54,14.22-32.93,22.26-18.59,14.38-47.23,11.84-70.62-6.1-6.49-5-12.2-10.76-18.65-16.5.3,2.19.52,4.35.88,6.5,2,12.06,5.66,23.88,13.62,35,12.49,17.42,31.31,24.09,50.85,18,13.2-4.14,23.07-11.9,32-20.67l3-2.89c-6.42,21.79-33.11,35.09-61.91,31.74,5.46,3.55,10.85,7.19,16.38,10.65C166.4,476.5,184.83,473,198.09,458c9.55-10.83,13.82-24.14,17.61-37.66.47-1.69.94-3.37,1.6-5.71,3,19.65-8.05,55-33.91,63.15,4.75.7,9.5,1.46,14.24,2.09,11.39,1.49,22.3,1.23,32.67-1.62,11.41-3.15,17.47-10.12,19.41-20.35a95.58,95.58,0,0,0-2.87-46.79c-.88-2.83-1.76-5.65-2.55-8.17h0c10.5,13,20.57,43.79,7.79,67.11,22.43-8.11,37.31-30.25,23-69,5.39,4.9,10,17,12.88,33.46l1.22.38C291,427,303,397.38,286.32,386a.38.38,0,0,0,.25-.09h0c21.44-8.61,43.72-26,60.74-43.77h0a.31.31,0,0,1,.11-.09h0c0,.13-.85-.55,0,0,.05,0-.1,0-.11.09-2.13,15-33.68,35.57-44,42-1.76,1.11-1.69,2,.36,1.79,18.81-1.8,110-14.29,153.26-86.95.9-1.51-.7-3.71-2.34-3.28-33.26,8.82-58,12.86-71.38,9.83-1.57-.36-.93-2.07.68-2.43,43.49-9.88,66-29.89,66.27-30.07l0,0C494.33,242.15,498,203.57,497.37,189.59ZM224.18,179.06l-21.9,8.9c5.79-8.45,13-13.76,22.94-14.61C224.78,175.6,224,177.37,224.18,179.06Z" transform="translate(-2.57 -19.27)" fill="url(#radial-gradient)"/><path d="M185.24,279.11l7.27-.27C190.56,279.91,188.17,280.08,185.24,279.11Z" transform="translate(-2.57 -19.27)" fill="url(#radial-gradient-2)"/><path d="M318.65,297.75,318,298h0Z" transform="translate(-2.57 -19.27)" fill="#b51100"/><path d="M277.34,357.74" transform="translate(-2.57 -19.27)" fill="url(#radial-gradient-3)"/><path d="M383.23,305.54c13.34,3,38.12-1,71.38-9.83a2.21,2.21,0,0,1,2.47,1.6c-68.68,36.23-133.29,5.62-141.44,1.47l.56-.17L318,298c12-4.24,21.45-9.83,28.83-16.31,14.92-12.85,21.14-30.51,23-48.17,16.57,4,52.07,12.61,54.49,12.14,1.23-.24,8.24-5,16.56-11a102.7,102.7,0,0,0,53.94-46.27c.71-1.24,2.5-1.35,2.62,1.14.65,14-3,52.55-47.23,83.5l0,0c-.25.18-22.78,20.18-66.27,30.06C382.3,303.47,381.66,305.18,383.23,305.54Z" transform="translate(-2.57 -19.27)" fill="url(#radial-gradient-4)"/><path d="M402.91,273.18c-34.34,8.7-48.33,7.1-53.31,5.94,17.63-17.19,21.52-41.72,20.68-63.53l19.56-15.1,34.89-51.2c-.37,1.68-.79,3.39-1.24,5.11-.2.72.95,1.86,1.69,1.64,24.27-7.21,23.1-54.7,22.41-68.09-.11-2.25,1.46-1.88,2.4-.79,14.58,16.81,47.17,76.25-1.3,129.74h0l-.18.19c-.16.18-12.42,13.54-21,19.27-1.22.82-2.34,2.32-.15,2,10.92-1.63,46.05-12.2,67.35-49.91a1.38,1.38,0,0,1,1.79-.73C493.73,199.68,477,254.39,402.91,273.18Z" transform="translate(-2.57 -19.27)" fill="url(#radial-gradient-5)"/><path d="M423.86,208.8c-21.33,17.74-39.52,25.19-54.38,27.13,3.11-24.46-2.57-49.31-5.55-61.72,0-.16-1.78-5.27,1.79-8.53,45.24-42.91-3.6-125-52-144.18-1.12-.44-.92-1.74.38-1.53,44.08,7,133.75,42.84,109.43,134.43-.2.72.95,1.86,1.69,1.64,24.27-7.21,23.1-54.7,22.41-68.09-.1-2.07,1.21-1.92,2.16-1C459.05,108,476.83,164.75,423.86,208.8Z" transform="translate(-2.57 -19.27)" fill="url(#radial-gradient-6)"/><path d="M369.92,209.44a225.67,225.67,0,0,0-6-35.23c0-.16-1.78-5.27,1.79-8.53,45.22-42.9-3.58-124.93-52-144.16l.34-1.55S483.31,81.28,369.92,209.44Z" transform="translate(-2.57 -19.27)" fill="url(#radial-gradient-7)"/><g opacity="0.3"><path d="M457.25,297.55s-.43.43-1.28,1.15-2.1,1.78-3.81,3-3.79,2.64-6.32,4.06c-1.25.73-2.62,1.46-4,2.24s-3,1.49-4.64,2.22-3.35,1.45-5.14,2.21c-.89.37-1.83.67-2.76,1s-1.9.68-2.89,1a107.63,107.63,0,0,1-12.5,3.41l-3.34.65c-1.12.21-2.25.44-3.4.6l-3.46.53c-1.16.17-2.33.25-3.51.38a133.21,133.21,0,0,1-14.32.68c-2.4,0-4.8-.17-7.19-.25s-4.75-.4-7.1-.64-4.66-.61-6.93-1l-6.71-1.28c-2.17-.52-4.33-1-6.4-1.54s-4.08-1.22-6-1.8-3.84-1.24-5.64-1.91-3.54-1.29-5.17-2-3.22-1.33-4.69-2-2.84-1.38-4.14-2c-2.58-1.27-4.8-2.43-6.58-3.5s-3.16-1.91-4.1-2.47l-1.43-.91.23-.53,5.92,2.4c1.86.81,4.19,1.6,6.85,2.57s5.7,1.93,9,3c1.64.57,3.4,1,5.21,1.52s3.66,1.06,5.61,1.48,3.93.94,6,1.37l6.29,1.21,6.54,1c2.22.28,4.47.5,6.74.76s4.56.32,6.87.49,4.62.17,6.93.17c4.63,0,9.27-.07,13.81-.47s9-.94,13.29-1.62,8.39-1.6,12.24-2.63,7.45-2.1,10.73-3.27,6.24-2.32,8.83-3.43,4.81-2.2,6.62-3.12c3.6-1.86,5.52-3.14,5.52-3.14Z" transform="translate(-2.57 -19.27)" fill="#ffff84"/></g><g opacity="0.3"><path d="M291.36,314.23s2.6,1.14,7.24,2.92,11.34,4.17,19.47,6.7a284,284,0,0,0,28.18,7.24c5.22,1.05,10.64,2,16.18,2.67s11.2,1.17,16.86,1.37a133.66,133.66,0,0,0,16.89-.37,100.67,100.67,0,0,0,16.14-2.6,81.16,81.16,0,0,0,14.41-5,63.84,63.84,0,0,0,25.9-21.66c1.37-2.06,2.42-3.7,3.05-4.87l1-1.77.52.28-.76,1.93a52.81,52.81,0,0,1-2.48,5.35,55.06,55.06,0,0,1-5,7.79l-.82,1.1-.92,1.08c-.63.72-1.23,1.52-2,2.24s-1.42,1.5-2.19,2.24l-2.44,2.21L438,325.25l-2.89,2.12c-1,.67-2,1.34-3.12,2s-2.19,1.28-3.34,1.87a75,75,0,0,1-15.05,6c-1.35.41-2.72.71-4.1,1.07s-2.78.62-4.2.89a86.88,86.88,0,0,1-8.6,1.27c-2.9.3-5.83.5-8.77.59s-5.89.08-8.82,0a160.25,160.25,0,0,1-17.39-1.6c-2.84-.4-5.64-.87-8.39-1.44s-5.45-1.15-8.1-1.76c-5.3-1.21-10.33-2.71-15.06-4.21-2.37-.76-4.66-1.5-6.86-2.3s-4.29-1.6-6.3-2.39-3.93-1.56-5.74-2.34-3.51-1.56-5.1-2.29c-3.19-1.44-5.91-2.85-8.14-4s-3.94-2.17-5.11-2.83-1.78-1.08-1.78-1.08Z" transform="translate(-2.57 -19.27)" fill="#ff0"/></g><path d="M180.22,297l.69.26h0Z" transform="translate(-2.57 -19.27)" fill="#b51100"/><path d="M220.88,357.44" transform="translate(-2.57 -19.27)" fill="url(#radial-gradient-8)"/><path d="M115.55,304.1c-13.36,2.89-38.1-1.42-71.27-10.59a2.22,2.22,0,0,0-2.49,1.58c68.3,37,133.23,7.05,141.42,3l-.55-.18-1.75-.62c-12-4.37-21.35-10.06-28.66-16.62-14.79-13-20.81-30.74-22.46-48.41-16.6,3.87-52.2,12-54.61,11.55-1.23-.25-8.19-5-16.45-11.14A102.72,102.72,0,0,1,5.29,185.8c-.69-1.24-2.48-1.37-2.62,1.12-.81,14,2.47,52.58,46.33,84l0,0c.25.18,22.57,20.43,66,30.77C116.51,302.05,117.13,303.76,115.55,304.1Z" transform="translate(-2.57 -19.27)" fill="url(#radial-gradient-9)"/><path d="M96.22,271.53c34.25,9.08,48.25,7.62,53.25,6.51-17.44-17.37-21.08-41.94-20-63.74L110.07,199,75.73,147.42c.36,1.69.75,3.39,1.19,5.12.18.73-1,1.85-1.71,1.62C51,146.69,52.7,99.22,53.53,85.84c.14-2.25-1.44-1.9-2.39-.82-14.76,16.65-48,75.74-.09,129.75h0l.18.19c.15.18,12.27,13.68,20.76,19.49,1.21.83,2.31,2.35.13,2C61.2,234.69,26.19,223.75,5.29,185.8a1.38,1.38,0,0,0-1.78-.74C6.2,197.07,22.35,252,96.22,271.53Z" transform="translate(-2.57 -19.27)" fill="url(#radial-gradient-10)"/><path d="M76,206.94c21.14,18,39.25,25.61,54.09,27.71-2.85-24.49,3.1-49.29,6.21-61.66,0-.16,1.84-5.25-1.7-8.55C89.79,121.05,139.5,39.52,188.14,20.83c1.13-.43.94-1.73-.36-1.54C143.63,25.86,53.58,60.7,76.92,152.54c.18.73-1,1.85-1.71,1.62C51,146.69,52.7,99.22,53.53,85.84c.12-2.07-1.19-1.94-2.14-1.07C41.85,105.75,23.46,162.32,76,206.94Z" transform="translate(-2.57 -19.27)" fill="url(#radial-gradient-11)"/><path d="M129.89,208.16A225.43,225.43,0,0,1,136.26,173c0-.16,1.84-5.25-1.7-8.55C89.8,121.06,139.48,39.56,188.11,20.85c-.22-1-.33-1.56-.33-1.56S17.88,78.78,129.89,208.16Z" transform="translate(-2.57 -19.27)" fill="url(#radial-gradient-12)"/><g opacity="0.3"><path d="M41.63,295.33s.42.43,1.26,1.16,2.09,1.79,3.78,3A73.4,73.4,0,0,0,53,303.61c1.24.75,2.6,1.49,4,2.29s3,1.52,4.61,2.26,3.33,1.5,5.11,2.27c.89.39,1.82.69,2.76,1.05s1.89.7,2.87,1A106.74,106.74,0,0,0,84.79,316l3.34.68c1.12.23,2.24.47,3.39.64l3.45.57c1.16.18,2.33.27,3.51.41a133.1,133.1,0,0,0,14.31.84c2.4,0,4.8-.12,7.19-.18s4.76-.35,7.11-.56,4.66-.56,6.94-.92l6.72-1.22c2.18-.49,4.34-.93,6.42-1.47s4.1-1.17,6.06-1.73,3.85-1.2,5.66-1.85,3.56-1.25,5.2-2,3.22-1.29,4.71-2,2.85-1.34,4.15-2c2.6-1.24,4.83-2.37,6.62-3.43s3.18-1.87,4.13-2.42l1.44-.89-.23-.55L179,300.44c-1.87.78-4.21,1.55-6.88,2.49s-5.72,1.87-9,2.91c-1.65.54-3.42,1-5.22,1.46s-3.68,1-5.63,1.42-3.94.9-6,1.31l-6.3,1.14-6.55.92c-2.22.26-4.48.45-6.75.68s-4.57.28-6.87.42-4.62.12-6.94.1c-4.63,0-9.26-.18-13.8-.62s-9-1-13.27-1.76-8.37-1.69-12.21-2.77-7.43-2.18-10.69-3.38-6.22-2.39-8.8-3.53-4.78-2.25-6.58-3.18A60.53,60.53,0,0,1,42,294.84Z" transform="translate(-2.57 -19.27)" fill="#ffff84"/></g><g opacity="0.3"><path d="M207.32,313.78s-2.6,1.11-7.27,2.84-11.37,4.05-19.54,6.49a285.33,285.33,0,0,1-28.25,6.95c-5.23,1-10.66,1.84-16.21,2.48s-11.21,1.06-16.88,1.19a135.34,135.34,0,0,1-16.88-.54,102.59,102.59,0,0,1-16.11-2.78,80.14,80.14,0,0,1-14.35-5.16,65.15,65.15,0,0,1-11.68-7.09,64.29,64.29,0,0,1-8.48-7.83,65.85,65.85,0,0,1-5.51-7c-1.35-2.08-2.38-3.73-3-4.91l-1-1.78-.52.27s.25.68.74,1.94a49.7,49.7,0,0,0,2.42,5.38,55.8,55.8,0,0,0,4.92,7.84l.82,1.11.9,1.09c.62.73,1.22,1.53,1.93,2.26s1.4,1.51,2.17,2.26L58,321l2.64,2.21,2.86,2.15c1,.68,2,1.36,3.1,2s2.18,1.29,3.32,1.9a75.31,75.31,0,0,0,15,6.14c1.34.42,2.71.74,4.09,1.11s2.77.65,4.18.94c2.82.56,5.68,1.06,8.59,1.36s5.83.56,8.77.69,5.88.14,8.82.07a163.28,163.28,0,0,0,17.4-1.41c2.84-.37,5.65-.82,8.41-1.36s5.46-1.09,8.12-1.67c5.31-1.15,10.36-2.6,15.1-4.05,2.37-.74,4.68-1.45,6.88-2.22s4.31-1.56,6.33-2.33,3.95-1.51,5.76-2.27,3.52-1.52,5.13-2.24c3.2-1.41,5.94-2.78,8.18-3.92s4-2.12,5.14-2.78,1.79-1.05,1.79-1.05Z" transform="translate(-2.57 -19.27)" fill="#ff0"/></g><path d="M350.15,229c-8.63,37-33.56,44.76-53.47,44.59a16.25,16.25,0,0,0-15,22.89h0c19-7.88,39.6-12,53.57-28.73,7.79-9.86,17.42-21.77,18-34.27a44.34,44.34,0,0,0-1.35-4.72C351.57,227.79,350.39,228,350.15,229Z" transform="translate(-2.57 -19.27)" fill="url(#radial-gradient-13)"/><path d="M149,227.88c9.56,36.75,38,45.63,58.56,47.94,11.76,1.32,16.12,6.87,11.57,17.79h0c-19.16-7.41-39.89-11-54.28-27.36-8-9.67-18-21.33-18.83-33.81.32-1.56.73-3.15,1.23-4.76C147.55,226.73,148.74,226.88,149,227.88Z" transform="translate(-2.57 -19.27)" fill="url(#radial-gradient-14)"/><path d="M244.91,163.52l.21,0Z" transform="translate(-2.57 -19.27)" fill="url(#radial-gradient-15)"/><path d="M245.63,163.69l.1,0Z" transform="translate(-2.57 -19.27)" fill="url(#radial-gradient-16)"/><path d="M244,163.31Z" transform="translate(-2.57 -19.27)" fill="url(#radial-gradient-17)"/><path d="M244.41,163.4l-.11,0Z" transform="translate(-2.57 -19.27)" fill="url(#radial-gradient-18)"/><path d="M244.12,163.34l-.09,0Z" transform="translate(-2.57 -19.27)" fill="url(#radial-gradient-19)"/><path d="M247.22,164.07h0Z" transform="translate(-2.57 -19.27)" fill="url(#radial-gradient-20)"/><path d="M247.29,164.08l.08,0Z" transform="translate(-2.57 -19.27)" fill="url(#radial-gradient-21)"/><path d="M246,163.78l.38.09Z" transform="translate(-2.57 -19.27)" fill="url(#radial-gradient-22)"/><path d="M247.37,164.1l.14,0Z" transform="translate(-2.57 -19.27)" fill="url(#radial-gradient-23)"/><path d="M246.37,163.87l.85.2Z" transform="translate(-2.57 -19.27)" fill="url(#radial-gradient-24)"/><path d="M247.63,164.16Z" transform="translate(-2.57 -19.27)" fill="url(#radial-gradient-25)"/><path d="M247.51,164.13l.07,0Z" transform="translate(-2.57 -19.27)" fill="url(#radial-gradient-26)"/><path d="M247.59,164.15h0Z" transform="translate(-2.57 -19.27)" fill="url(#radial-gradient-27)"/><path d="M247.58,164.15h0Z" transform="translate(-2.57 -19.27)" fill="url(#radial-gradient-28)"/></g></svg>