<svg id="Layer_1" data-name="Layer 1" xmlns="http://www.w3.org/2000/svg" xmlns:xlink="http://www.w3.org/1999/xlink" viewBox="0 0 256 256"><defs><linearGradient id="linear-gradient" x1="50.46" y1="30.71" x2="209.3" y2="163.99" gradientUnits="userSpaceOnUse"><stop offset="0" stop-color="#f04d24"/><stop offset="0.06" stop-color="#e55331"/><stop offset="0.39" stop-color="#ac7778"/><stop offset="0.67" stop-color="#8290ac"/><stop offset="0.88" stop-color="#68a0cc"/><stop offset="1" stop-color="#5ea6d8"/><stop offset="1" stop-color="#231f20"/></linearGradient></defs><path d="M18.29,62.17l92,159.35,1.13,2h33.14l91-157.65,2.12-3.66a2.2,2.2,0,0,0,0-2.19L222.49,33.61a2.2,2.2,0,0,0-1.9-1.09H34.15L18.29,60A2.2,2.2,0,0,0,18.29,62.17Zm206.35,7-84,145.42a2.21,2.21,0,0,1-1.9,1.1H123.49a2.19,2.19,0,0,1-1.9-3.29l84-145.42a2.2,2.2,0,0,1,1.9-1.1h15.29A2.19,2.19,0,0,1,224.64,69.12ZM133.16,150l48-83.1a2.18,2.18,0,0,1,1.9-1.1h10.28a2.19,2.19,0,0,1,1.9,3.29l-53.13,92a2.2,2.2,0,0,1-3.8,0l-5.14-8.91A2.2,2.2,0,0,1,133.16,150Zm-3.26-10a2.19,2.19,0,0,1-3.8,0L99.44,93.81a2.19,2.19,0,0,1,1.9-3.29h53.32a2.19,2.19,0,0,1,1.9,3.29Zm40.92-70.87-7.2,12.47a2.21,2.21,0,0,1-1.9,1.09H69.87a2.2,2.2,0,0,1-1.9-1.1L60.78,69.12a2.19,2.19,0,0,1,1.9-3.29H168.92A2.19,2.19,0,0,1,170.82,69.12ZM76.93,90.52H87.21a2.18,2.18,0,0,1,1.9,1.1L135,171.17a2.2,2.2,0,0,1,0,2.19l-5.14,8.9a2.19,2.19,0,0,1-3.8,0L75,93.81A2.2,2.2,0,0,1,76.93,90.52ZM48,40.36H216.06a2.21,2.21,0,0,1,1.9,1.1l7.64,13.23A2.19,2.19,0,0,1,223.7,58H55.61a2.19,2.19,0,0,1-1.9-1.09L46.07,43.65A2.19,2.19,0,0,1,48,40.36ZM27.35,60,36.9,43.44l.08.15L122.84,192.3a2.2,2.2,0,0,1,0,2.19l-7.65,13.24a2.2,2.2,0,0,1-3.8,0l-84-145.56A2.2,2.2,0,0,1,27.35,60Z" fill="url(#linear-gradient)"/></svg>